HIERARCHY
ROOT hip
{
	OFFSET 0.000000 0.000000 0.000000 
	CHANNELS 6 Xposition Yposition Zposition Xrotation Zrotation Yrotation
	JOINT abdomen
	{
		OFFSET 0.000000 3.402643 0.000000 
		CHANNELS 3 Xrotation Zrotation Yrotation
		JOINT chest
		{
			OFFSET 0.000000 8.438565 -0.680529 
			CHANNELS 3 Xrotation Zrotation Yrotation
			JOINT neck
			{
				OFFSET 0.000000 10.207942 -0.272212 
				CHANNELS 3 Xrotation Zrotation Yrotation
				JOINT head
				{
					OFFSET 0.000000 3.130431 0.000000 
					CHANNELS 3 Xrotation Zrotation Yrotation
					End Site
					{
						OFFSET 0.000000 3.130435 0.000000 
					}
				}
			}
			JOINT lCollar
			{
				OFFSET 3.470700 6.669187 -0.816635 
				CHANNELS 3 Yrotation Zrotation Xrotation
				JOINT lShldr
				{
					OFFSET 3.198488 0.000000 0.000000 
					CHANNELS 3 Zrotation Yrotation Xrotation
					JOINT lForeArm
					{
						OFFSET 10.139888 0.000000 0.000000 
						CHANNELS 3 Yrotation Zrotation Xrotation
						JOINT lHand
						{
							OFFSET 8.370511 0.000000 0.000000 
							CHANNELS 3 Zrotation Yrotation Xrotation
							End Site
							{
								OFFSET 4.083176 0.000000 0.000000 
							}
						}
					}
				}
			}
			JOINT rCollar
			{
				OFFSET -3.470700 6.669187 -0.816635 
				CHANNELS 3 Yrotation Zrotation Xrotation
				JOINT rShldr
				{
					OFFSET -3.198488 0.000000 0.000000 
					CHANNELS 3 Zrotation Yrotation Xrotation
					JOINT rForeArm
					{
						OFFSET -10.139888 0.000000 0.000000 
						CHANNELS 3 Yrotation Zrotation Xrotation
						JOINT rHand
						{
							OFFSET -8.370511 0.000000 0.000000 
							CHANNELS 3 Zrotation Yrotation Xrotation
							End Site
							{
								OFFSET -4.083176 0.000000 0.000000 
							}
						}
					}
				}
			}
		}
	}
	JOINT lThigh
	{
		OFFSET 5.308129 -1.633274 1.361059 
		CHANNELS 3 Xrotation Zrotation Yrotation
		JOINT lShin
		{
			OFFSET -2.041588 -20.007561 0.000000 
			CHANNELS 3 Xrotation Zrotation Yrotation
			JOINT lFoot
			{
				OFFSET 0.000000 -19.190928 -1.224953 
				CHANNELS 3 Xrotation Yrotation Zrotation
				End Site
				{
					OFFSET 0.000000 -2.449906 4.627600 
				}
			}
		}
	}
	JOINT rThigh
	{
		OFFSET -5.308129 -1.633274 1.361059 
		CHANNELS 3 Xrotation Zrotation Yrotation
		JOINT rShin
		{
			OFFSET 2.041588 -20.007561 0.000000 
			CHANNELS 3 Xrotation Zrotation Yrotation
			JOINT rFoot
			{
				OFFSET 0.000000 -19.190928 -1.224953 
				CHANNELS 3 Xrotation Yrotation Zrotation
				End Site
				{
					OFFSET 0.000000 -2.449906 4.627600 
				}
			}
		}
	}
}
MOTION
Frames: 10
Frame Time: 0.033333
-164.854034 48.829735 -244.553101 0.351781 -2.021446 38.620064 21.083984 0.005638 0.012641 -20.839844 0.000000 0.000000 8.539898 1.511171 3.007963 -2.520832 -1.255077 0.218355 -4.754609 -0.109184 -0.002653 -53.169369 -2.031629 21.545992 -2.647370 0.127879 -2.806681 0.352242 -7.028729 0.090501 4.754609 0.109184 -0.002672 61.161419 4.109403 -14.977567 2.802261 -0.517200 24.241949 -0.499935 8.062891 0.060911 7.778544 11.850554 3.623470 -5.457030 -3.561901 10.044645 -0.219513 0.185593 -3.545564 6.968306 -8.979837 -9.842957 -3.161905 3.473233 -8.990431 -1.926638 -0.474247 4.950997 
-164.655060 48.786076 -244.498322 0.742830 -2.382613 38.152332 21.113285 0.018220 0.007039 -20.839844 0.000000 0.000000 7.745521 1.923096 3.814625 -2.520832 -1.255077 0.218355 -4.754609 -0.109184 -0.002653 -61.032158 -2.515041 27.437477 -2.646775 0.142532 -1.839995 1.048440 -6.052791 0.055814 4.754609 0.109184 -0.002672 67.519463 3.978572 -13.176977 2.820973 -0.543879 25.980139 0.127621 6.665556 0.060289 7.583275 11.634931 3.657315 -5.445669 -3.531989 10.676923 -1.028668 0.188199 -3.070698 6.580620 -9.119992 -10.182190 -3.208028 3.510014 -8.204359 -2.061577 -0.489196 5.272624 
-164.489044 48.747997 -244.434845 0.772231 -2.519303 37.787922 21.201174 0.023840 0.019726 -20.839844 0.000000 0.000000 7.738834 2.601814 3.877264 -2.520832 -1.255077 0.218355 -4.754609 -0.109184 -0.002653 -67.820847 -2.792300 34.002865 -2.646870 0.139719 -2.025521 0.999687 -6.023513 0.054773 4.754609 0.109184 -0.002672 73.100746 3.619678 -12.040771 2.825645 -0.553300 26.771177 1.136182 5.736666 0.075368 7.837976 11.568418 4.112881 -5.459066 -3.533338 10.619767 -1.821247 0.212468 -3.172927 6.568720 -9.176589 -10.090550 -3.152003 3.521598 -7.966429 -2.270286 -0.543434 5.390447 
-164.335693 48.702808 -244.355621 0.742884 -2.480261 37.633476 21.318357 0.032092 -0.029406 -20.839844 0.000000 0.000000 8.216318 2.908086 3.747782 -2.520832 -1.255077 0.218355 -4.754609 -0.109184 -0.002653 -72.722031 -2.550858 39.785378 -2.646625 0.147715 -1.498237 -1.011085 -7.300592 0.140165 4.754609 0.109184 -0.002672 77.681694 2.791025 -11.343447 2.866496 -0.597107 30.540672 1.509593 5.843314 0.098654 8.276142 11.420726 5.158551 -5.470439 -3.582477 9.734744 -2.618774 0.301058 -3.691778 6.793356 -9.302840 -9.813158 -3.163431 3.513223 -8.181623 -2.549108 -0.557027 5.525502 
-164.148895 48.653049 -244.286621 1.055585 -2.362881 37.426815 21.425749 0.038216 -0.100394 -20.839844 0.000000 0.000000 8.573021 2.741431 3.537420 -2.520832 -1.255077 0.218355 -4.754609 -0.109184 -0.002653 -76.680237 -2.898896 45.423744 -2.666922 0.212933 2.866568 -1.853790 -9.017175 0.231618 4.754609 0.109184 -0.002672 80.978394 2.054930 -10.286725 2.937523 -0.670030 37.152020 1.225362 6.156315 0.090486 8.470476 10.922757 5.788436 -5.462976 -3.597497 9.451677 -3.354380 0.317212 -3.935153 6.910506 -9.781557 -9.253554 -3.453695 3.482287 -8.776828 -2.721233 -0.591212 5.872304 
-163.936676 48.608379 -244.226685 1.661580 -2.372051 37.157433 21.513601 0.077232 -0.147992 -20.839844 0.000000 0.000000 8.592034 2.471033 3.064885 -2.520832 -1.255077 0.218355 -4.754609 -0.109184 -0.002653 -79.789406 -4.091677 51.162621 -2.693377 0.285312 7.953992 -1.044587 -10.697530 0.243170 4.754609 0.109184 -0.002672 82.959045 1.882950 -8.850138 3.041683 -0.730051 44.828304 1.019744 6.322575 0.086761 8.201881 10.399692 4.516652 -5.449907 -3.513851 11.067161 -3.935300 0.337796 -3.805646 6.625577 -10.345655 -8.627038 -3.675898 3.461680 -9.230933 -2.766142 -0.558896 5.749014 
-163.712799 48.567265 -244.154114 2.365765 -2.624717 36.688145 21.552637 0.109289 -0.177312 -20.839844 0.000000 0.000000 8.612483 2.334464 2.641862 -2.520832 -1.255077 0.218355 -4.754609 -0.109184 -0.002653 -81.573578 -5.441386 56.603485 -4.265126 0.318273 10.237700 -0.187273 -11.353514 0.208957 4.754609 0.109184 -0.002672 84.140068 2.505455 -6.860824 3.107256 -0.766831 49.633381 1.031460 6.908132 0.107845 7.654699 10.076365 2.547895 -5.426236 -3.395876 13.343260 -4.485816 0.349445 -3.753051 6.012844 -10.708890 -8.339355 -3.797043 3.473996 -8.946764 -2.749591 -0.525499 5.235451 
-163.473175 48.492123 -243.999756 2.874820 -2.916253 35.839634 21.630756 0.100192 -0.180862 -20.839844 0.000000 0.000000 8.824481 2.386864 2.978864 -2.520832 -1.255077 0.218355 -4.754609 -0.109184 -0.002653 -82.483597 -6.403848 62.076412 -7.704015 0.318674 9.656955 0.841955 -9.978849 0.117996 4.754609 0.109184 -0.002672 85.055428 4.093680 -4.676353 3.111024 -0.770008 50.092339 1.253906 8.439981 0.173997 7.604681 9.801642 2.976551 -5.419634 -3.387022 13.596043 -5.265639 0.402790 -3.939346 5.555387 -10.907108 -8.617491 -3.840248 3.518902 -7.848669 -2.785269 -0.551229 5.109457 
-163.238617 48.368755 -243.765747 3.276530 -3.178400 34.983887 21.777245 0.087621 -0.175289 -20.839844 0.000000 0.000000 9.295687 2.700533 3.532160 -2.520832 -1.255077 0.218355 -4.754609 -0.109184 -0.002653 -83.325768 -7.305072 67.597565 -10.316308 0.290746 7.940510 2.159389 -8.652620 0.040355 4.754609 0.109184 -0.002672 85.961967 6.637777 -3.739342 3.127837 -0.780903 51.381527 1.063806 10.422161 0.216402 7.797328 9.594050 3.844051 -5.413784 -3.384920 13.507873 -6.165613 0.479219 -4.340827 5.292317 -10.986633 -9.054637 -3.882160 3.580073 -7.004795 -2.895509 -0.560046 5.391933 
-163.050293 48.255032 -243.503754 3.953884 -3.770328 33.909435 21.884653 0.125216 -0.191715 -20.839844 0.000000 0.000000 9.855193 2.904546 4.124792 -2.520832 -1.255077 0.218355 -4.754609 -0.109184 -0.002653 -83.914780 -9.131641 72.493309 -11.539557 0.265489 5.963071 1.923577 -8.632753 0.050777 4.754609 0.109184 -0.002672 87.153992 3.829874 -0.945238 14.795513 -0.811465 55.905697 4.099453 10.023573 0.430197 7.525930 9.636087 4.013861 -5.399762 -3.357371 14.403470 -7.036822 0.563575 -4.600641 4.323029 -10.882356 -8.183609 -3.748184 3.533526 -7.598482 -2.929814 -0.566210 5.558530 
